<svg xmlns="http://www.w3.org/2000/svg" width="80" height="80" viewBox="0 0 80 80" fill="none">
  <circle cx="40" cy="40" r="32" fill="#ec4899" opacity="0.1"/>
  <path d="M52 24C52 27.3137 49.3137 30 46 30C42.6863 30 40 27.3137 40 24C40 20.6863 42.6863 18 46 18C49.3137 18 52 20.6863 52 24Z" fill="#ec4899"/>
  <path d="M40 56C40 59.3137 37.3137 62 34 62C30.6863 62 28 59.3137 28 56C28 52.6863 30.6863 50 34 50C37.3137 50 40 52.6863 40 56Z" fill="#ec4899"/>
  <path d="M40 40C40 43.3137 37.3137 46 34 46C30.6863 46 28 43.3137 28 40C28 36.6863 30.6863 34 34 34C37.3137 34 40 36.6863 40 40Z" fill="#ec4899"/>
  <path d="M46 30L34 34" stroke="#ec4899" stroke-width="2" stroke-linecap="round"/>
  <path d="M34 46L34 50" stroke="#ec4899" stroke-width="2" stroke-linecap="round"/>
  <path d="M52 40C52 43.3137 49.3137 46 46 46C42.6863 46 40 43.3137 40 40C40 36.6863 42.6863 34 46 34C49.3137 34 52 36.6863 52 40Z" fill="#ec4899"/>
  <path d="M46 34L46 30" stroke="#ec4899" stroke-width="2" stroke-linecap="round"/>
  <path d="M40 40L34 40" stroke="#ec4899" stroke-width="2" stroke-linecap="round"/>
  <path d="M52 40L60 40C61.1046 40 62 40.8954 62 42V42C62 43.1046 61.1046 44 60 44H53" stroke="#ec4899" stroke-width="2" stroke-linecap="round"/>
  <path d="M46 46L46 50C46 51.1046 45.1046 52 44 52V52C42.8954 52 42 51.1046 42 50V47" stroke="#ec4899" stroke-width="2" stroke-linecap="round"/>
  <path d="M34 34L20 34C18.8954 34 18 33.1046 18 32V32C18 30.8954 18.8954 30 20 30H28" stroke="#ec4899" stroke-width="2" stroke-linecap="round"/>
</svg> 