<svg xmlns="http://www.w3.org/2000/svg" width="80" height="80" viewBox="0 0 80 80" fill="none">
  <circle cx="40" cy="40" r="32" fill="#f97316" opacity="0.1"/>
  <path d="M30 24C30 29.5228 25.5228 34 20 34C14.4772 34 10 29.5228 10 24C10 18.4772 14.4772 14 20 14C25.5228 14 30 18.4772 30 24Z" fill="#f97316"/>
  <path d="M70 24C70 29.5228 65.5228 34 60 34C54.4772 34 50 29.5228 50 24C50 18.4772 54.4772 14 60 14C65.5228 14 70 18.4772 70 24Z" fill="#f97316"/>
  <path d="M53 35C53 44.3888 47.1797 52 40 52C32.8203 52 27 44.3888 27 35" stroke="#f97316" stroke-width="2"/>
  <path d="M46 24C46 27.3137 43.3137 30 40 30C36.6863 30 34 27.3137 34 24C34 20.6863 36.6863 18 40 18C43.3137 18 46 20.6863 46 24Z" fill="#f97316"/>
  <path d="M40 56V66" stroke="#f97316" stroke-width="2" stroke-linecap="round"/>
  <path d="M34 60H46" stroke="#f97316" stroke-width="2" stroke-linecap="round"/>
  <path d="M27 35C27 32.2386 29.2386 30 32 30H48C50.7614 30 53 32.2386 53 35" stroke="#f97316" stroke-width="2"/>
</svg> 