<svg xmlns="http://www.w3.org/2000/svg" width="80" height="80" viewBox="0 0 80 80" fill="none">
  <circle cx="40" cy="40" r="32" fill="#fbbf24" opacity="0.1"/>
  <circle cx="40" cy="40" r="10" fill="#fbbf24"/>
  <path d="M40 24V30" stroke="#fbbf24" stroke-width="2" stroke-linecap="round"/>
  <path d="M40 50V56" stroke="#fbbf24" stroke-width="2" stroke-linecap="round"/>
  <path d="M56 40H50" stroke="#fbbf24" stroke-width="2" stroke-linecap="round"/>
  <path d="M30 40H24" stroke="#fbbf24" stroke-width="2" stroke-linecap="round"/>
  <path d="M51.8 51.8L47.7 47.7" stroke="#fbbf24" stroke-width="2" stroke-linecap="round"/>
  <path d="M32.3 32.3L28.2 28.2" stroke="#fbbf24" stroke-width="2" stroke-linecap="round"/>
  <path d="M51.8 28.2L47.7 32.3" stroke="#fbbf24" stroke-width="2" stroke-linecap="round"/>
  <path d="M32.3 47.7L28.2 51.8" stroke="#fbbf24" stroke-width="2" stroke-linecap="round"/>
  <circle cx="40" cy="16" r="4" fill="#fbbf24"/>
  <circle cx="40" cy="64" r="4" fill="#fbbf24"/>
  <circle cx="64" cy="40" r="4" fill="#fbbf24"/>
  <circle cx="16" cy="40" r="4" fill="#fbbf24"/>
  <circle cx="57" cy="57" r="4" fill="#fbbf24"/>
  <circle cx="23" cy="23" r="4" fill="#fbbf24"/>
  <circle cx="57" cy="23" r="4" fill="#fbbf24"/>
  <circle cx="23" cy="57" r="4" fill="#fbbf24"/>
</svg> 