<svg xmlns="http://www.w3.org/2000/svg" width="48" height="48" viewBox="0 0 48 48" fill="none">
  <circle cx="24" cy="24" r="20" fill="#2563eb" opacity="0.2"/>
  <path d="M31 17C31 20.866 27.866 24 24 24C20.134 24 17 20.866 17 17C17 13.134 20.134 10 24 10C27.866 10 31 13.134 31 17Z" fill="#2563eb"/>
  <path d="M24 26C16.268 26 10 32.268 10 40H38C38 32.268 31.732 26 24 26Z" fill="#2563eb"/>
  <path d="M24 26C20.134 26 17 22.866 17 19M24 26C27.866 26 31 22.866 31 19" stroke="#0f172a" stroke-width="2"/>
  <circle cx="24" cy="17" r="2" fill="#0f172a"/>
  <path d="M24 26L24 38" stroke="#0f172a" stroke-width="2"/>
  <path d="M18 32L30 32" stroke="#0f172a" stroke-width="2"/>
</svg> 