<?xml version="1.0" encoding="UTF-8"?>
<svg width="800" height="600" viewBox="0 0 800 600" fill="none" xmlns="http://www.w3.org/2000/svg">
  <!-- Brain outline -->
  <path d="M400 50C250 50 150 150 150 300C150 450 250 550 400 550C550 550 650 450 650 300C650 150 550 50 400 50Z" fill="#F3F4F6"/>
  
  <!-- Hypothalamus -->
  <circle cx="400" cy="200" r="40" fill="#FDE68A"/>
  <text x="400" y="205" text-anchor="middle" fill="#1F2937" font-size="14">시상하부</text>
  
  <!-- Pituitary -->
  <circle cx="400" cy="280" r="30" fill="#FCA5A5"/>
  <text x="400" y="285" text-anchor="middle" fill="#1F2937" font-size="14">뇌하수체</text>
  
  <!-- Adrenal gland -->
  <circle cx="400" cy="400" r="35" fill="#93C5FD"/>
  <text x="400" y="405" text-anchor="middle" fill="#1F2937" font-size="14">부신</text>
  
  <!-- Connection lines -->
  <line x1="400" y1="240" x2="400" y2="250" stroke="#6B7280" stroke-width="2"/>
  <line x1="400" y1="310" x2="400" y2="365" stroke="#6B7280" stroke-width="2"/>
  
  <!-- Title -->
  <text x="400" y="100" text-anchor="middle" fill="#1F2937" font-size="24" font-weight="bold">코르티솔 분비 경로</text>
  
  <!-- Description text -->
  <text x="150" y="480" fill="#4B5563" font-size="14">
    <tspan x="150" dy="0">1. 시상하부가 부신피질자극호르몬방출호르몬(CRH)을 분비</tspan>
    <tspan x="150" dy="20">2. 뇌하수체가 부신피질자극호르몬(ACTH)을 분비</tspan>
    <tspan x="150" dy="20">3. 부신피질이 코르티솔을 분비</tspan>
  </text>
  
  <!-- Arrows -->
  <defs>
    <marker id="arrowhead" markerWidth="10" markerHeight="7" refX="9" refY="3.5" orient="auto">
      <polygon points="0 0, 10 3.5, 0 7" fill="#6B7280"/>
    </marker>
  </defs>
  <path d="M400 240L400 250" stroke="#6B7280" stroke-width="2" marker-end="url(#arrowhead)"/>
  <path d="M400 310L400 365" stroke="#6B7280" stroke-width="2" marker-end="url(#arrowhead)"/>
</svg> 