<svg xmlns="http://www.w3.org/2000/svg" width="48" height="48" viewBox="0 0 48 48" fill="none">
  <circle cx="24" cy="24" r="20" fill="#FAF5FF" />
  <path d="M24,14c-5.5,0-10,4.5-10,10c0,5.5,4.5,10,10,10s10-4.5,10-10C34,18.5,29.5,14,24,14z M24,31c-3.9,0-7-3.1-7-7s3.1-7,7-7s7,3.1,7,7S27.9,31,24,31z" fill="#A855F7" />
  <path d="M24,20c-2.2,0-4,1.8-4,4s1.8,4,4,4s4-1.8,4-4S26.2,20,24,20z" fill="#A855F7" />
  <path d="M24,15c-0.6,0-1,0.4-1,1v2c0,0.6,0.4,1,1,1s1-0.4,1-1v-2C25,15.4,24.6,15,24,15z" fill="#A855F7" />
  <path d="M24,29c-0.6,0-1,0.4-1,1v2c0,0.6,0.4,1,1,1s1-0.4,1-1v-2C25,29.4,24.6,29,24,29z" fill="#A855F7" />
  <path d="M33,23h-2c-0.6,0-1,0.4-1,1s0.4,1,1,1h2c0.6,0,1-0.4,1-1S33.6,23,33,23z" fill="#A855F7" />
  <path d="M17,23h-2c-0.6,0-1,0.4-1,1s0.4,1,1,1h2c0.6,0,1-0.4,1-1S17.6,23,17,23z" fill="#A855F7" />
</svg> 